<svg viewBox="0 0 400 400" xmlns="http://www.w3.org/2000/svg" xmlns:xlink="http://www.w3.org/1999/xlink" height="400" width="400"><text x="5" y="30" font-size="24" fill="red">34.5</text><path stroke="#d3d3d3" stroke-width="2" fill="none" d="M0 0h398v398H0z"/><image width="398" height="398" xlink:href="https://render.bitstrips.com/v2/cpanel/20006758-211104192_1-s5-v1.png?transparent=1"/><path stroke="green" stroke-width="2" fill="none" stroke-dasharray="5,5" d="M0 0h398v398H0z"/><g><svg xmlns:svg="http://www.w3.org/2000/svg" xmlns="http://www.w3.org/2000/svg" xmlns:xlink="http://www.w3.org/1999/xlink" width="796" height="796" viewBox="0 0 400 400" preserveAspectRatio="xMinYMin meet" x="-202" y="-175"><defs><linearGradient id="E"><stop offset="0" stop-color="#fff" stop-opacity="0"/><stop offset=".369" stop-color="#fff" stop-opacity="0"/><stop offset=".38" stop-color="#fff"/><stop offset="1" stop-color="#fff"/></linearGradient><linearGradient id="B"><stop offset="0" stop-color="#fff" stop-opacity="0"/><stop offset=".364" stop-color="#fff" stop-opacity="0"/><stop offset=".374" stop-color="#fff"/><stop offset="1" stop-color="#fff"/></linearGradient><linearGradient id="y"><stop offset="0" stop-color="#fff" stop-opacity="0"/><stop offset=".362" stop-color="#fff" stop-opacity="0"/><stop offset=".372" stop-color="#fff"/><stop offset="1" stop-color="#fff"/></linearGradient><linearGradient id="r"><stop offset="0" stop-color="#fff" stop-opacity="0"/><stop offset=".356" stop-color="#fff" stop-opacity="0"/><stop offset=".359" stop-color="#fff"/><stop offset="1" stop-color="#fff"/></linearGradient><linearGradient id="q"><stop offset="0" stop-color="#fff" stop-opacity="0"/><stop offset=".41" stop-color="#fff" stop-opacity="0"/><stop offset=".414" stop-color="#fff"/><stop offset="1" stop-color="#fff"/></linearGradient><linearGradient id="o"><stop offset="0" stop-color="#fff" stop-opacity="0"/><stop offset=".416" stop-color="#fff" stop-opacity="0"/><stop offset=".42" stop-color="#fff"/><stop offset="1" stop-color="#fff" stop-opacity=".5"/></linearGradient><linearGradient id="n"><stop offset="0" stop-color="#fff" stop-opacity="0"/><stop offset=".377" stop-color="#fff" stop-opacity="0"/><stop offset=".379" stop-color="#fff" stop-opacity=".937"/><stop offset=".407" stop-color="#fff" stop-opacity=".514"/><stop offset="1" stop-color="#fff"/></linearGradient><linearGradient id="m"><stop offset="0" stop-color="#fff" stop-opacity="0"/><stop offset=".373" stop-color="#fff" stop-opacity="0"/><stop offset=".374" stop-color="#fff" stop-opacity=".937"/><stop offset=".391" stop-color="#fff" stop-opacity=".514"/><stop offset="1" stop-color="#fff"/></linearGradient><linearGradient id="l"><stop offset="0" stop-color="#fff" stop-opacity="0"/><stop offset=".372" stop-color="#fff" stop-opacity="0"/><stop offset=".373" stop-color="#fff" stop-opacity=".937"/><stop offset=".392" stop-color="#fff" stop-opacity=".514"/><stop offset="1" stop-color="#fff"/></linearGradient><linearGradient id="j"><stop offset="0" stop-color="#fff" stop-opacity="0"/><stop offset=".359" stop-color="#fff" stop-opacity="0"/><stop offset=".36" stop-color="#fff" stop-opacity=".937"/><stop offset=".365" stop-color="#fff" stop-opacity=".514"/><stop offset="1" stop-color="#fff"/></linearGradient><linearGradient id="i"><stop offset="0" stop-color="#fff" stop-opacity="0"/><stop offset=".414" stop-color="#fff" stop-opacity="0"/><stop offset=".415" stop-color="#fff" stop-opacity=".937"/><stop offset=".422" stop-color="#fff" stop-opacity=".514"/><stop offset="1" stop-color="#fff"/></linearGradient><linearGradient id="h"><stop offset="0" stop-color="#fff" stop-opacity="0"/><stop offset=".425" stop-color="#fff" stop-opacity="0"/><stop offset=".43" stop-color="#fff" stop-opacity=".8"/><stop offset=".43" stop-color="#fff" stop-opacity=".9"/><stop offset="1" stop-color="#fff"/></linearGradient><linearGradient id="g"><stop offset="0" stop-color="#fd7ae1"/><stop offset=".36" stop-color="#fd7ae1"/><stop offset=".377" stop-color="#70c3fb"/><stop offset=".393" stop-color="#ac2fff"/><stop offset="1" stop-color="#ac2fff"/></linearGradient><linearGradient id="f"><stop offset="0" stop-color="#fd7ae1"/><stop offset=".354" stop-color="#fd7ae1"/><stop offset=".375" stop-color="#70c3fb"/><stop offset=".39" stop-color="#ac2fff"/><stop offset="1" stop-color="#ac2fff"/></linearGradient><linearGradient id="d"><stop offset="0" stop-color="#fd7ae1"/><stop offset=".354" stop-color="#fd7ae1"/><stop offset=".375" stop-color="#70c3fb"/><stop offset=".39" stop-color="#ac2fff"/><stop offset="1" stop-color="#ac2fff"/></linearGradient><linearGradient id="c"><stop offset="0" stop-color="#fd7ae1"/><stop offset=".355" stop-color="#fd7ae1"/><stop offset=".359" stop-color="#70c3fb"/><stop offset=".367" stop-color="#ac2fff"/><stop offset="1" stop-color="#ac2fff"/></linearGradient><linearGradient id="b"><stop offset="0" stop-color="#fd7ae1"/><stop offset=".41" stop-color="#fd7ae1"/><stop offset=".414" stop-color="#70c3fb"/><stop offset=".423" stop-color="#ac2fff"/><stop offset="1" stop-color="#ac2fff"/></linearGradient><linearGradient id="a"><stop offset="0" stop-color="#3f513c"/><stop offset=".42" stop-color="#5b7244"/><stop offset=".425" stop-color="#7f9c62"/><stop offset=".43" stop-color="#5b7244" stop-opacity=".44"/><stop offset="1" stop-color="#3f513c"/></linearGradient><radialGradient xlink:href="#a" id="aZ" cx="200.352" cy="243.302" fx="200.352" fy="243.302" r="245.436" gradientTransform="matrix(2.56031 0 0 2.95502 -314.81 -295.695)" gradientUnits="userSpaceOnUse"/><radialGradient xlink:href="#b" id="aM" cx="202.284" cy="219.37" fx="202.284" fy="219.37" r="256.15" gradientTransform="matrix(2.04878 0 0 2.08216 -217.291 -88.342)" gradientUnits="userSpaceOnUse"/><radialGradient xlink:href="#c" id="az" gradientUnits="userSpaceOnUse" gradientTransform="matrix(2.5374 0 0 3.02996 -293.695 -103.007)" cx="194.185" cy="174.791" fx="194.185" fy="174.791" r="226.779"/><linearGradient xlink:href="#d" id="am" x1="207.5" y1="282.143" x2="207.5" y2="101.428" gradientUnits="userSpaceOnUse" gradientTransform="matrix(.97537 0 0 1.1507 -.246 -31.422)"/><mask maskUnits="userSpaceOnUse" id="aO"><text style="line-height:1.25;-inkscape-font-specification:'bm_round, Normal';font-variant-ligatures:normal;font-variant-caps:normal;font-variant-numeric:normal;font-feature-settings:normal;text-align:center" font-weight="400" font-size="24" font-family="bm_round" letter-spacing="0" word-spacing="0" text-anchor="middle" fill="#fff"><textPath startOffset="50%" xlink:href="#e"/></text></mask><linearGradient xlink:href="#f" id="Z" x1="226.129" y1="329.915" x2="226.129" y2="138.165" gradientUnits="userSpaceOnUse" gradientTransform="matrix(.91185 0 0 1.1436 -1.196 -49.079)"/><linearGradient xlink:href="#g" id="M" x1="206.302" y1="394.866" x2="206.302" y2="96.444" gradientUnits="userSpaceOnUse" gradientTransform="matrix(.78664 0 0 .67361 39.745 87.042)"/><radialGradient xlink:href="#h" id="bc" gradientUnits="userSpaceOnUse" gradientTransform="matrix(2.56031 0 0 2.95502 -314.81 -295.695)" cx="200.352" cy="243.302" fx="200.352" fy="243.302" r="245.436"/><radialGradient xlink:href="#i" id="aP" gradientUnits="userSpaceOnUse" gradientTransform="matrix(2.04878 0 0 2.08216 -217.291 -88.342)" cx="202.284" cy="219.37" fx="202.284" fy="219.37" r="256.15"/><radialGradient xlink:href="#j" id="aC" gradientUnits="userSpaceOnUse" gradientTransform="matrix(2.5374 0 0 3.02996 -293.695 -103.007)" cx="194.185" cy="174.791" fx="194.185" fy="174.791" r="226.779"/><mask maskUnits="userSpaceOnUse" id="aB"><text style="line-height:1.25;-inkscape-font-specification:'bm_round, Normal';font-variant-ligatures:normal;font-variant-caps:normal;font-variant-numeric:normal;font-feature-settings:normal;text-align:center" font-weight="400" font-size="24" font-family="bm_round" letter-spacing="0" word-spacing="0" text-anchor="middle" fill="#fff"><textPath startOffset="50%" xlink:href="#k"/></text></mask><linearGradient xlink:href="#l" id="ap" gradientUnits="userSpaceOnUse" gradientTransform="matrix(.97537 0 0 1.1507 -.246 -31.422)" x1="207.5" y1="282.143" x2="207.5" y2="101.428"/><mask maskUnits="userSpaceOnUse" id="ao"><text style="line-height:1.25;-inkscape-font-specification:'bm_round, Normal';font-variant-ligatures:normal;font-variant-caps:normal;font-variant-numeric:normal;font-feature-settings:normal;text-align:center" x="201.352" y="221.692" font-weight="400" font-size="24" font-family="bm_round" letter-spacing="0" word-spacing="0" text-anchor="middle" fill="#fff"/></mask><linearGradient xlink:href="#m" id="ac" gradientUnits="userSpaceOnUse" gradientTransform="matrix(.91185 0 0 1.1436 -1.196 -49.079)" x1="226.129" y1="329.915" x2="226.129" y2="138.165"/><mask maskUnits="userSpaceOnUse" id="ab"><text style="line-height:1.25;-inkscape-font-specification:'bm_round, Normal';font-variant-ligatures:normal;font-variant-caps:normal;font-variant-numeric:normal;font-feature-settings:normal;text-align:center" x="201.364" y="252.277" font-weight="400" font-size="24" font-family="bm_round" letter-spacing="0" word-spacing="0" text-anchor="middle" fill="#fff"/></mask><linearGradient xlink:href="#n" id="P" gradientUnits="userSpaceOnUse" gradientTransform="matrix(.78664 0 0 .67361 39.745 87.042)" x1="206.302" y1="394.866" x2="206.302" y2="96.444"/><mask maskUnits="userSpaceOnUse" id="O"><text style="line-height:1.25;-inkscape-font-specification:'bm_round, Normal';font-variant-ligatures:normal;font-variant-caps:normal;font-variant-numeric:normal;font-feature-settings:normal;text-align:center" x="201.352" y="282.863" font-weight="400" font-size="24" font-family="bm_round" letter-spacing="0" word-spacing="0" text-anchor="middle" fill="#fff"/></mask><filter id="t" height="8" width="2.68" x="-.86" y="-3" color-interpolation-filters="sRGB"><feOffset dx=".5" dy=".5"/><feGaussianBlur stdDeviation=".1"/></filter><radialGradient xlink:href="#o" id="bf" gradientUnits="userSpaceOnUse" gradientTransform="matrix(2.56031 0 0 2.95502 -314.81 -295.695)" cx="200.352" cy="243.302" fx="200.352" fy="243.302" r="245.436"/><filter id="N" height="1.44" x="-.12" y="-.2" color-interpolation-filters="sRGB"><feOffset/></filter><filter id="aa" height="1.47" width="1.2" y="-.25" color-interpolation-filters="sRGB"><feOffset/></filter><filter id="an" width="1.21" height="1.43" x="-.1" y="-.24" color-interpolation-filters="sRGB"><feOffset/></filter><filter id="aA" color-interpolation-filters="sRGB"><feOffset/></filter><filter id="aN" color-interpolation-filters="sRGB"><feOffset/></filter><filter id="ba" color-interpolation-filters="sRGB"><feOffset/></filter><mask maskUnits="userSpaceOnUse" id="aY"><text style="font:34.5px/1.25 bm_serif;font-feature-settings:normal;text-align:center" letter-spacing="1.5" word-spacing="0" text-anchor="middle" fill="#fff"><textPath startOffset="50%" xlink:href="#p">LOLL</textPath></text></mask><mask maskUnits="userSpaceOnUse" id="aL"><text style="line-height:1.25;-inkscape-font-specification:'bm_round, Normal';font-variant-ligatures:normal;font-variant-caps:normal;font-variant-numeric:normal;font-feature-settings:normal;text-align:center" font-weight="400" font-size="24" font-family="bm_round" letter-spacing="0" word-spacing="0" text-anchor="middle" fill="#fff"><textPath xlink:href="#e" startOffset="50%"/></text></mask><mask maskUnits="userSpaceOnUse" id="ay"><text style="line-height:1.25;-inkscape-font-specification:'bm_round, Normal';font-variant-ligatures:normal;font-variant-caps:normal;font-variant-numeric:normal;font-feature-settings:normal;text-align:center" font-weight="400" font-size="24" font-family="bm_round" letter-spacing="0" word-spacing="0" text-anchor="middle" fill="#fff"><textPath startOffset="50%" xlink:href="#k"/></text></mask><mask maskUnits="userSpaceOnUse" id="L"><text style="line-height:1.25;-inkscape-font-specification:'bm_round, Normal';font-variant-ligatures:normal;font-variant-caps:normal;font-variant-numeric:normal;font-feature-settings:normal;text-align:center" x="201.352" y="282.863" font-weight="400" font-size="24" font-family="bm_round" letter-spacing="0" word-spacing="0" text-anchor="middle" fill="#fff"/></mask><mask maskUnits="userSpaceOnUse" id="Y"><text style="line-height:1.25;-inkscape-font-specification:'bm_round, Normal';font-variant-ligatures:normal;font-variant-caps:normal;font-variant-numeric:normal;font-feature-settings:normal;text-align:center" x="201.364" y="252.277" font-weight="400" font-size="24" font-family="bm_round" letter-spacing="0" word-spacing="0" text-anchor="middle" fill="#fff"/></mask><mask maskUnits="userSpaceOnUse" id="al"><text y="221.692" x="201.352" style="line-height:1.25;-inkscape-font-specification:'bm_round, Normal';font-variant-ligatures:normal;font-variant-caps:normal;font-variant-numeric:normal;font-feature-settings:normal;text-align:center" font-weight="400" font-size="24" font-family="bm_round" letter-spacing="0" word-spacing="0" text-anchor="middle" fill="#fff"/></mask><filter id="bg" color-interpolation-filters="sRGB"><feOffset/></filter><radialGradient xlink:href="#q" id="aS" gradientUnits="userSpaceOnUse" gradientTransform="matrix(2.04878 0 0 2.08216 -217.291 -88.342)" cx="202.284" cy="219.37" fx="202.284" fy="219.37" r="256.15"/><filter y="-3" x="-.86" width="2.68" height="8" id="v" color-interpolation-filters="sRGB"><feOffset dy=".5" dx=".5"/><feGaussianBlur stdDeviation=".1"/></filter><mask maskUnits="userSpaceOnUse" id="s"><text style="font:34.5px/1.25 bm_serif;font-feature-settings:normal;text-align:center" letter-spacing="1.5" word-spacing="0" text-anchor="middle" fill="#fff" stroke="#000" stroke-linejoin="round"><textPath xlink:href="#p" startOffset="50%">LOLL</textPath></text></mask><mask maskUnits="userSpaceOnUse" id="u"><text style="line-height:1.25;-inkscape-font-specification:'bm_round, Normal';font-variant-ligatures:normal;font-variant-caps:normal;font-variant-numeric:normal;font-feature-settings:normal;text-align:center" font-weight="400" font-size="24" font-family="bm_round" letter-spacing="0" word-spacing="0" text-anchor="middle" fill="#fff" stroke="#000"><textPath startOffset="50%" xlink:href="#e"/></text></mask><radialGradient xlink:href="#r" id="aF" gradientUnits="userSpaceOnUse" gradientTransform="matrix(2.5374 0 0 3.02996 -293.695 -103.007)" cx="194.185" cy="174.791" fx="194.185" fy="174.791" r="226.779"/><filter y="-3" x="-.86" width="2.68" height="8" id="x" color-interpolation-filters="sRGB"><feOffset dy=".5" dx=".5"/><feGaussianBlur stdDeviation=".1"/></filter><mask maskUnits="userSpaceOnUse" id="w"><text style="line-height:1.25;-inkscape-font-specification:'bm_round, Normal';font-variant-ligatures:normal;font-variant-caps:normal;font-variant-numeric:normal;font-feature-settings:normal;text-align:center" font-weight="400" font-size="24" font-family="bm_round" letter-spacing="0" word-spacing="0" text-anchor="middle" fill="#fff" stroke="#000" stroke-linejoin="round"><textPath startOffset="50%" xlink:href="#k"/></text></mask><mask maskUnits="userSpaceOnUse" id="be"><text mask="url(#s)" style="font:34.5px/1.25 bm_serif;font-feature-settings:normal;text-align:center" letter-spacing="1.5" word-spacing="0" text-anchor="middle" fill="none" stroke="#fff" stroke-linejoin="round" filter="url(#t)"><textPath startOffset="50%" xlink:href="#p">LOLL</textPath></text></mask><filter id="aT" color-interpolation-filters="sRGB"><feOffset/></filter><mask maskUnits="userSpaceOnUse" id="aR"><text style="line-height:1.25;-inkscape-font-specification:'bm_round, Normal';font-variant-ligatures:normal;font-variant-caps:normal;font-variant-numeric:normal;font-feature-settings:normal;text-align:center" mask="url(#u)" font-weight="400" font-size="24" font-family="bm_round" letter-spacing="0" word-spacing="0" text-anchor="middle" fill="none" stroke="#fff" filter="url(#v)"><textPath xlink:href="#e" startOffset="50%"/></text></mask><filter id="aG" color-interpolation-filters="sRGB"><feOffset/></filter><mask maskUnits="userSpaceOnUse" id="aE"><text style="line-height:1.25;-inkscape-font-specification:'bm_round, Normal';font-variant-ligatures:normal;font-variant-caps:normal;font-variant-numeric:normal;font-feature-settings:normal;text-align:center" mask="url(#w)" font-weight="400" font-size="24" font-family="bm_round" letter-spacing="0" word-spacing="0" text-anchor="middle" fill="none" stroke="#fff" stroke-linejoin="round" filter="url(#x)"><textPath xlink:href="#k" startOffset="50%"/></text></mask><linearGradient xlink:href="#y" id="as" gradientUnits="userSpaceOnUse" gradientTransform="matrix(.97537 0 0 1.1507 -.246 -31.422)" x1="207.5" y1="282.143" x2="207.5" y2="101.428"/><filter id="A" height="8" width="2.68" x="-.86" y="-3" color-interpolation-filters="sRGB"><feOffset dx=".6" dy=".6"/><feGaussianBlur stdDeviation=".2"/></filter><mask maskUnits="userSpaceOnUse" id="z"><text style="line-height:1.25;-inkscape-font-specification:'bm_round, Normal';font-variant-ligatures:normal;font-variant-caps:normal;font-variant-numeric:normal;font-feature-settings:normal;text-align:center" x="201.352" y="221.692" font-weight="400" font-size="24" font-family="bm_round" letter-spacing="0" word-spacing="0" text-anchor="middle" fill="#fff" stroke="#000" stroke-linejoin="round"/></mask><filter id="at" color-interpolation-filters="sRGB"><feOffset/></filter><mask maskUnits="userSpaceOnUse" id="ar"><text y="221.692" x="201.352" style="line-height:1.25;-inkscape-font-specification:'bm_round, Normal';font-variant-ligatures:normal;font-variant-caps:normal;font-variant-numeric:normal;font-feature-settings:normal;text-align:center" mask="url(#z)" font-weight="400" font-size="24" font-family="bm_round" letter-spacing="0" word-spacing="0" text-anchor="middle" fill="none" stroke="#fff" stroke-linejoin="round" filter="url(#A)"/></mask><filter id="ag" color-interpolation-filters="sRGB"><feOffset/></filter><filter y="-3" x="-.86" width="2.68" height="8" id="D" color-interpolation-filters="sRGB"><feOffset dy=".6" dx=".6"/><feGaussianBlur stdDeviation=".2"/></filter><linearGradient xlink:href="#B" id="af" gradientUnits="userSpaceOnUse" gradientTransform="matrix(.91185 0 0 1.1436 -1.196 -49.079)" x1="226.129" y1="329.915" x2="226.129" y2="138.165"/><mask maskUnits="userSpaceOnUse" id="C"><text y="252.277" x="201.364" style="line-height:1.25;-inkscape-font-specification:'bm_round, Normal';font-variant-ligatures:normal;font-variant-caps:normal;font-variant-numeric:normal;font-feature-settings:normal;text-align:center" font-weight="400" font-size="24" font-family="bm_round" letter-spacing="0" word-spacing="0" text-anchor="middle" fill="#fff" stroke="#000" stroke-linejoin="round"/></mask><mask maskUnits="userSpaceOnUse" id="ae"><text mask="url(#C)" style="line-height:1.25;-inkscape-font-specification:'bm_round, Normal';font-variant-ligatures:normal;font-variant-caps:normal;font-variant-numeric:normal;font-feature-settings:normal;text-align:center" x="201.364" y="252.277" font-weight="400" font-size="24" font-family="bm_round" letter-spacing="0" word-spacing="0" text-anchor="middle" fill="none" stroke="#fff" stroke-linejoin="round" filter="url(#D)"/></mask><linearGradient xlink:href="#E" id="S" gradientUnits="userSpaceOnUse" gradientTransform="matrix(.78664 0 0 .67361 39.745 87.042)" x1="206.302" y1="394.866" x2="206.302" y2="96.444"/><filter id="T" color-interpolation-filters="sRGB"><feOffset/></filter><filter id="G" height="8" width="2.68" x="-.86" y="-3" color-interpolation-filters="sRGB"><feOffset dx=".6" dy=".6"/><feGaussianBlur stdDeviation=".2"/></filter><mask maskUnits="userSpaceOnUse" id="F"><text style="line-height:1.25;-inkscape-font-specification:'bm_round, Normal';font-variant-ligatures:normal;font-variant-caps:normal;font-variant-numeric:normal;font-feature-settings:normal;text-align:center" x="201.352" y="282.863" font-weight="400" font-size="24" font-family="bm_round" letter-spacing="0" word-spacing="0" text-anchor="middle" fill="#fff" stroke="#000" stroke-linejoin="round"/></mask><mask maskUnits="userSpaceOnUse" id="R"><text y="282.863" x="201.352" style="line-height:1.25;-inkscape-font-specification:'bm_round, Normal';font-variant-ligatures:normal;font-variant-caps:normal;font-variant-numeric:normal;font-feature-settings:normal;text-align:center" mask="url(#F)" font-weight="400" font-size="24" font-family="bm_round" letter-spacing="0" word-spacing="0" text-anchor="middle" fill="none" stroke="#fff" stroke-linejoin="round" filter="url(#G)"/></mask><filter id="bd" color-interpolation-filters="sRGB"><feOffset/></filter><mask maskUnits="userSpaceOnUse" id="bb"><text style="font:34.5px/1.25 bm_serif;font-feature-settings:normal;text-align:center" letter-spacing="1.5" word-spacing="0" text-anchor="middle" fill="#fff"><textPath xlink:href="#p" startOffset="50%">LOLL</textPath></text></mask><filter id="aQ" color-interpolation-filters="sRGB"><feOffset/></filter><filter id="aD" color-interpolation-filters="sRGB"><feOffset/></filter><filter id="aq" color-interpolation-filters="sRGB"><feOffset/></filter><filter id="ad" color-interpolation-filters="sRGB"><feOffset/></filter><filter id="Q" color-interpolation-filters="sRGB"><feOffset/></filter><filter id="aX" x="-.65" y="-1.75" width="2.25" height="4.63" color-interpolation-filters="sRGB"><feOffset/><feGaussianBlur stdDeviation=".01"/></filter><filter id="aK" height="4.63" width="2.25" x="-.65" y="-1.75" color-interpolation-filters="sRGB"><feOffset/><feGaussianBlur stdDeviation=".01"/></filter><filter id="ax" x="-.65" y="-1.75" width="2.25" height="4.63" color-interpolation-filters="sRGB"><feOffset/><feGaussianBlur stdDeviation=".01"/></filter><filter id="ak" x="-.65" y="-1.75" width="2.25" height="4.63" color-interpolation-filters="sRGB"><feOffset/><feGaussianBlur stdDeviation=".01"/></filter><filter id="X" x="-.65" y="-1.75" width="2.25" height="4.63" color-interpolation-filters="sRGB"><feOffset/><feGaussianBlur stdDeviation=".01"/></filter><filter id="K" x="-.65" y="-1.75" width="2.25" height="4.63" color-interpolation-filters="sRGB"><feOffset/><feGaussianBlur stdDeviation=".01"/></filter><filter id="aW" x="-.65" y="-1.75" height="4.63" width="2.25" color-interpolation-filters="sRGB"><feOffset/><feGaussianBlur stdDeviation=".01"/></filter><filter id="aJ" height="4.63" width="2.25" x="-.65" y="-1.75" color-interpolation-filters="sRGB"><feOffset/><feGaussianBlur stdDeviation=".01"/></filter><filter id="aw" x="-.65" y="-1.72" width="2.25" height="4.63" color-interpolation-filters="sRGB"><feOffset/><feGaussianBlur stdDeviation=".01"/></filter><filter id="aj" x="-.65" y="-1.75" height="4.4" width="2.25" color-interpolation-filters="sRGB"><feOffset/><feGaussianBlur stdDeviation=".01"/></filter><filter id="W" x="-.65" y="-1.75" width="2.25" height="4.4" color-interpolation-filters="sRGB"><feOffset/><feGaussianBlur stdDeviation=".01"/></filter><filter id="J" width="2.25" height="4.4" y="-1.75" x="-.65" color-interpolation-filters="sRGB"><feOffset/><feGaussianBlur stdDeviation=".01"/></filter><filter width="2.25" height="4.63" y="-1.75" x="-.65" id="aV" color-interpolation-filters="sRGB"><feOffset dx="1" dy="1"/><feGaussianBlur stdDeviation=".01"/></filter><filter id="aI" x="-.65" y="-1.75" height="4.63" width="2.25" color-interpolation-filters="sRGB"><feOffset dy="1" dx="1"/><feGaussianBlur stdDeviation=".01"/></filter><filter width="2.25" height="4.63" y="-1.75" x="-.65" id="av" color-interpolation-filters="sRGB"><feOffset dx="1" dy="1"/><feGaussianBlur stdDeviation=".01"/></filter><filter id="ai" x="-.65" y="-1.75" height="4.63" width="2.25" color-interpolation-filters="sRGB"><feOffset dy="1" dx="1"/><feGaussianBlur stdDeviation=".01"/></filter><filter width="2.25" height="4.63" y="-1.75" x="-.65" id="V" color-interpolation-filters="sRGB"><feOffset dx="1" dy="1"/><feGaussianBlur stdDeviation=".01"/></filter><filter id="I" x="-.65" y="-1.75" height="4.63" width="2.25" color-interpolation-filters="sRGB"><feOffset dy="1" dx="1"/><feGaussianBlur stdDeviation=".01"/></filter><filter id="aU" x="-.65" y="-1.75" height="4.63" width="2.25" color-interpolation-filters="sRGB"><feOffset dy="3" dx="3"/><feGaussianBlur stdDeviation="2"/></filter><filter width="2.25" height="4.63" y="-1.75" x="-.65" id="aH" color-interpolation-filters="sRGB"><feOffset dx="3" dy="3"/><feGaussianBlur stdDeviation="2"/></filter><filter id="au" x="-.65" y="-1.75" height="4.63" width="2.25" color-interpolation-filters="sRGB"><feOffset dy="3" dx="3"/><feGaussianBlur stdDeviation="2"/></filter><filter width="2.25" height="4.63" y="-1.75" x="-.65" id="ah" color-interpolation-filters="sRGB"><feOffset dx="3" dy="3"/><feGaussianBlur stdDeviation="2"/></filter><filter id="U" x="-.65" y="-1.75" height="4.63" width="2.25" color-interpolation-filters="sRGB"><feOffset dy="3" dx="3"/><feGaussianBlur stdDeviation="2"/></filter><filter width="2.25" height="4.63" y="-1.75" x="-.65" id="H" color-interpolation-filters="sRGB"><feOffset dx="3" dy="3"/><feGaussianBlur stdDeviation="2"/></filter></defs><text style="line-height:1.25;-inkscape-font-specification:'bm_round_blind, Normal';font-variant-ligatures:normal;font-variant-caps:normal;font-variant-numeric:normal;font-feature-settings:normal;text-align:center" x="201.352" y="282.863" font-weight="400" font-size="24" font-family="bm_round_blind" letter-spacing="0" word-spacing="0" text-anchor="middle" fill-opacity=".444" stroke="#000" stroke-width="0" stroke-linejoin="round" stroke-opacity=".444" filter="url(#H)"/><path d="M-60 400C28.848-3.735 408.237 70.77 460 400M-30 400c50.44-322.872 395.73-336.276 460 0M-10 400c82.857-315.714 364.286-254.286 420 0" fill="none"/><text y="282.863" x="201.352" style="line-height:1.25;-inkscape-font-specification:'bm_round_blind, Normal';font-variant-ligatures:normal;font-variant-caps:normal;font-variant-numeric:normal;font-feature-settings:normal;text-align:center" font-weight="400" font-size="24" font-family="bm_round_blind" letter-spacing="0" word-spacing="0" text-anchor="middle" fill="#e1a702" stroke="#e1a702" stroke-width="3.3" stroke-linejoin="round" filter="url(#I)"/><path d="M-60 400C28.848-3.735 408.237 70.77 460 400M-30 400c50.44-322.872 395.73-336.276 460 0M-10 400c82.857-315.714 364.286-254.286 420 0" fill="none"/><g><text style="line-height:1.25;-inkscape-font-specification:'bm_round_blind, Normal';font-variant-ligatures:normal;font-variant-caps:normal;font-variant-numeric:normal;font-feature-settings:normal;text-align:center" x="201.352" y="282.863" font-weight="400" font-size="24" font-family="bm_round_blind" letter-spacing="0" word-spacing="0" text-anchor="middle" fill="#fecb38" stroke="#fecb38" stroke-width="3.3" stroke-linejoin="round" filter="url(#J)"/><path d="M-60 400C28.848-3.735 408.237 70.77 460 400M-30 400c50.44-322.872 395.73-336.276 460 0M-10 400c82.857-315.714 364.286-254.286 420 0" fill="none"/></g><g><text y="282.863" x="201.352" style="line-height:1.25;-inkscape-font-specification:'bm_round, Normal';font-variant-ligatures:normal;font-variant-caps:normal;font-variant-numeric:normal;font-feature-settings:normal;text-align:center" font-weight="400" font-size="24" font-family="bm_round" letter-spacing="0" word-spacing="0" text-anchor="middle" fill="#182bb6" stroke="#182bb6" stroke-width="1.5" stroke-linejoin="round" filter="url(#K)"/><path d="M-60 400C28.848-3.735 408.237 70.77 460 400M-30 400c50.44-322.872 395.73-336.276 460 0M-10 400c82.857-315.714 364.286-254.286 420 0" fill="none"/></g><g><path mask="url(#L)" fill="url(#M)" filter="url(#N)" d="M-11.112 233.325h428.305v97.985H-11.112z"/><path d="M-60 400C28.848-3.735 408.237 70.77 460 400" id="p" fill="none" stroke="none" stroke-width="1" stroke-linecap="butt" stroke-linejoin="miter" stroke-opacity="1"/><path d="M-30 400c50.44-322.872 395.73-336.276 460 0" id="e" fill="none" stroke="none" stroke-width="1" stroke-linecap="butt" stroke-linejoin="miter" stroke-opacity="1"/><path d="M-10 400c82.857-315.714 364.286-254.286 420 0" id="k" fill="none" stroke="none" stroke-width="1" stroke-linecap="butt" stroke-linejoin="miter" stroke-opacity="1"/></g><g><path mask="url(#O)" opacity=".7" fill="url(#P)" filter="url(#Q)" d="M-11.112 233.325h428.305v97.985H-11.112z"/><path d="M-60 400C28.848-3.735 408.237 70.77 460 400M-30 400c50.44-322.872 395.73-336.276 460 0M-10 400c82.857-315.714 364.286-254.286 420 0" fill="none"/></g><g><path mask="url(#R)" opacity=".7" fill="url(#S)" filter="url(#T)" d="M-11.112 233.325h428.305v97.985H-11.112z"/><path d="M-60 400C28.848-3.735 408.237 70.77 460 400M-30 400c50.44-322.872 395.73-336.276 460 0M-10 400c82.857-315.714 364.286-254.286 420 0" fill="none"/></g><g><text y="252.277" x="201.364" style="line-height:1.25;-inkscape-font-specification:'bm_round_blind, Normal';font-variant-ligatures:normal;font-variant-caps:normal;font-variant-numeric:normal;font-feature-settings:normal;text-align:center" font-weight="400" font-size="24" font-family="bm_round_blind" letter-spacing="0" word-spacing="0" text-anchor="middle" fill-opacity=".444" stroke-width="3.3" stroke-linejoin="round" filter="url(#U)"/><path d="M-60 400C28.848-3.735 408.237 70.77 460 400M-30 400c50.44-322.872 395.73-336.276 460 0M-10 400c82.857-315.714 364.286-254.286 420 0" fill="none"/><text style="line-height:1.25;-inkscape-font-specification:'bm_round_blind, Normal';font-variant-ligatures:normal;font-variant-caps:normal;font-variant-numeric:normal;font-feature-settings:normal;text-align:center" x="201.364" y="252.277" font-weight="400" font-size="24" font-family="bm_round_blind" letter-spacing="0" word-spacing="0" text-anchor="middle" fill="#e1a702" stroke="#e1a702" stroke-width="3.3" stroke-linejoin="round" filter="url(#V)"/><path d="M-60 400C28.848-3.735 408.237 70.77 460 400M-30 400c50.44-322.872 395.73-336.276 460 0M-10 400c82.857-315.714 364.286-254.286 420 0" fill="none"/><g><text y="252.277" x="201.364" style="line-height:1.25;-inkscape-font-specification:'bm_round_blind, Normal';font-variant-ligatures:normal;font-variant-caps:normal;font-variant-numeric:normal;font-feature-settings:normal;text-align:center" font-weight="400" font-size="24" font-family="bm_round_blind" letter-spacing="0" word-spacing="0" text-anchor="middle" fill="#fecb38" stroke="#fecb38" stroke-width="3.3" stroke-linejoin="round" filter="url(#W)"/><path d="M-60 400C28.848-3.735 408.237 70.77 460 400M-30 400c50.44-322.872 395.73-336.276 460 0M-10 400c82.857-315.714 364.286-254.286 420 0" fill="none"/></g><g><text style="line-height:1.25;-inkscape-font-specification:'bm_round, Normal';font-variant-ligatures:normal;font-variant-caps:normal;font-variant-numeric:normal;font-feature-settings:normal;text-align:center" x="201.364" y="252.277" font-weight="400" font-size="24" font-family="bm_round" letter-spacing="0" word-spacing="0" text-anchor="middle" fill="#182bb6" stroke="#182bb6" stroke-width="1.5" stroke-linejoin="round" filter="url(#X)"/><path d="M-60 400C28.848-3.735 408.237 70.77 460 400M-30 400c50.44-322.872 395.73-336.276 460 0M-10 400c82.857-315.714 364.286-254.286 420 0" fill="none"/></g><g><path mask="url(#Y)" fill="url(#Z)" filter="url(#aa)" d="M-13.571 198.429H415v95.566H-13.571z"/><path d="M-60 400C28.848-3.735 408.237 70.77 460 400M-30 400c50.44-322.872 395.73-336.276 460 0M-10 400c82.857-315.714 364.286-254.286 420 0" fill="none"/></g><g><path mask="url(#ab)" opacity=".7" fill="url(#ac)" filter="url(#ad)" d="M-13.571 198.429H415v95.566H-13.571z"/><path d="M-60 400C28.848-3.735 408.237 70.77 460 400M-30 400c50.44-322.872 395.73-336.276 460 0M-10 400c82.857-315.714 364.286-254.286 420 0" fill="none"/></g><g><path mask="url(#ae)" opacity=".7" fill="url(#af)" filter="url(#ag)" d="M-13.571 198.429H415v95.566H-13.571z"/><path d="M-60 400C28.848-3.735 408.237 70.77 460 400M-30 400c50.44-322.872 395.73-336.276 460 0M-10 400c82.857-315.714 364.286-254.286 420 0" fill="none"/></g></g><g><text y="221.692" x="201.352" style="line-height:1.25;-inkscape-font-specification:'bm_round_blind, Normal';font-variant-ligatures:normal;font-variant-caps:normal;font-variant-numeric:normal;font-feature-settings:normal;text-align:center" font-weight="400" font-size="24" font-family="bm_round_blind" letter-spacing="0" word-spacing="0" text-anchor="middle" fill-opacity=".444" stroke="#000" stroke-width="0" stroke-linejoin="round" stroke-opacity=".444" filter="url(#ah)"/><path d="M-60 400C28.848-3.735 408.237 70.77 460 400M-30 400c50.44-322.872 395.73-336.276 460 0M-10 400c82.857-315.714 364.286-254.286 420 0" fill="none"/><text style="line-height:1.25;-inkscape-font-specification:'bm_round_blind, Normal';font-variant-ligatures:normal;font-variant-caps:normal;font-variant-numeric:normal;font-feature-settings:normal;text-align:center" x="201.352" y="221.692" font-weight="400" font-size="24" font-family="bm_round_blind" letter-spacing="0" word-spacing="0" text-anchor="middle" fill="#e1a702" stroke="#e1a702" stroke-width="3.3" stroke-linejoin="round" filter="url(#ai)"/><path d="M-60 400C28.848-3.735 408.237 70.77 460 400M-30 400c50.44-322.872 395.73-336.276 460 0M-10 400c82.857-315.714 364.286-254.286 420 0" fill="none"/><g><text y="221.692" x="201.352" style="line-height:1.25;-inkscape-font-specification:'bm_round_blind, Normal';font-variant-ligatures:normal;font-variant-caps:normal;font-variant-numeric:normal;font-feature-settings:normal;text-align:center" font-weight="400" font-size="24" font-family="bm_round_blind" letter-spacing="0" word-spacing="0" text-anchor="middle" fill="#fecb38" stroke="#fecb38" stroke-width="3.3" stroke-linejoin="round" filter="url(#aj)"/><path d="M-60 400C28.848-3.735 408.237 70.77 460 400M-30 400c50.44-322.872 395.73-336.276 460 0M-10 400c82.857-315.714 364.286-254.286 420 0" fill="none"/></g><g><text style="line-height:1.25;-inkscape-font-specification:'bm_round, Normal';font-variant-ligatures:normal;font-variant-caps:normal;font-variant-numeric:normal;font-feature-settings:normal;text-align:center" x="201.352" y="221.692" font-weight="400" font-size="24" font-family="bm_round" letter-spacing="0" word-spacing="0" text-anchor="middle" fill="#182bb6" stroke="#182bb6" stroke-width="1.5" stroke-linejoin="round" filter="url(#ak)"/><path d="M-60 400C28.848-3.735 408.237 70.77 460 400M-30 400c50.44-322.872 395.73-336.276 460 0M-10 400c82.857-315.714 364.286-254.286 420 0" fill="none"/></g><g><path mask="url(#al)" fill="url(#am)" filter="url(#an)" d="M-10 169.949h424.286v100.275H-10z"/><path d="M-60 400C28.848-3.735 408.237 70.77 460 400M-30 400c50.44-322.872 395.73-336.276 460 0M-10 400c82.857-315.714 364.286-254.286 420 0" fill="none"/></g><g><path mask="url(#ao)" opacity=".7" fill="url(#ap)" filter="url(#aq)" d="M-10 169.949h424.286v100.275H-10z"/><path d="M-60 400C28.848-3.735 408.237 70.77 460 400M-30 400c50.44-322.872 395.73-336.276 460 0M-10 400c82.857-315.714 364.286-254.286 420 0" fill="none"/></g><g><path mask="url(#ar)" opacity=".7" fill="url(#as)" filter="url(#at)" d="M-10 169.949h424.286v100.275H-10z"/><path d="M-60 400C28.848-3.735 408.237 70.77 460 400M-30 400c50.44-322.872 395.73-336.276 460 0M-10 400c82.857-315.714 364.286-254.286 420 0" fill="none"/></g></g><g><text style="line-height:1.25;-inkscape-font-specification:'bm_round_blind, Normal';font-variant-ligatures:normal;font-variant-caps:normal;font-variant-numeric:normal;font-feature-settings:normal;text-align:center" font-weight="400" font-size="24" font-family="bm_round_blind" letter-spacing="0" word-spacing="0" text-anchor="middle" fill-opacity=".444" stroke-width="3.3" stroke-linejoin="round" filter="url(#au)"><textPath startOffset="50%" xlink:href="#k"/></text><path d="M-60 400C28.848-3.735 408.237 70.77 460 400M-30 400c50.44-322.872 395.73-336.276 460 0M-10 400c82.857-315.714 364.286-254.286 420 0" fill="none"/><text style="line-height:1.25;-inkscape-font-specification:'bm_round_blind, Normal';font-variant-ligatures:normal;font-variant-caps:normal;font-variant-numeric:normal;font-feature-settings:normal;text-align:center" font-weight="400" font-size="24" font-family="bm_round_blind" letter-spacing="0" word-spacing="0" text-anchor="middle" fill="#e1a702" stroke="#e1a702" stroke-width="3.3" stroke-linejoin="round" filter="url(#av)"><textPath xlink:href="#k" startOffset="50%"/></text><path d="M-60 400C28.848-3.735 408.237 70.77 460 400M-30 400c50.44-322.872 395.73-336.276 460 0M-10 400c82.857-315.714 364.286-254.286 420 0" fill="none"/><g><text style="line-height:1.25;-inkscape-font-specification:'bm_round_blind, Normal';font-variant-ligatures:normal;font-variant-caps:normal;font-variant-numeric:normal;font-feature-settings:normal;text-align:center" font-weight="400" font-size="24" font-family="bm_round_blind" letter-spacing="0" word-spacing="0" text-anchor="middle" fill="#fecb38" stroke="#fecb38" stroke-width="3.3" stroke-linejoin="round" filter="url(#aw)"><textPath startOffset="50%" xlink:href="#k"/></text><path d="M-60 400C28.848-3.735 408.237 70.77 460 400M-30 400c50.44-322.872 395.73-336.276 460 0M-10 400c82.857-315.714 364.286-254.286 420 0" fill="none"/></g><g><text style="line-height:1.25;-inkscape-font-specification:'bm_round, Normal';font-variant-ligatures:normal;font-variant-caps:normal;font-variant-numeric:normal;font-feature-settings:normal;text-align:center" font-weight="400" font-size="24" font-family="bm_round" letter-spacing="0" word-spacing="0" text-anchor="middle" fill="#182bb6" stroke="#182bb6" stroke-width="1.5" stroke-linejoin="round" filter="url(#ax)"><textPath xlink:href="#k" startOffset="50%"/></text><path d="M-60 400C28.848-3.735 408.237 70.77 460 400M-30 400c50.44-322.872 395.73-336.276 460 0M-10 400c82.857-315.714 364.286-254.286 420 0" fill="none"/></g><g><path mask="url(#ay)" fill="url(#az)" filter="url(#aA)" d="M-46.286 127.985h488.571v592.587H-46.286z"/><path d="M-60 400C28.848-3.735 408.237 70.77 460 400M-30 400c50.44-322.872 395.73-336.276 460 0M-10 400c82.857-315.714 364.286-254.286 420 0" fill="none"/></g><g><path mask="url(#aB)" opacity=".7" fill="url(#aC)" filter="url(#aD)" d="M-46.286 127.985h488.571v592.587H-46.286z"/><path d="M-60 400C28.848-3.735 408.237 70.77 460 400M-30 400c50.44-322.872 395.73-336.276 460 0M-10 400c82.857-315.714 364.286-254.286 420 0" fill="none"/></g><g><path mask="url(#aE)" opacity=".7" fill="url(#aF)" filter="url(#aG)" d="M-46.286 127.985h488.571v592.587H-46.286z"/><path d="M-60 400C28.848-3.735 408.237 70.77 460 400M-30 400c50.44-322.872 395.73-336.276 460 0M-10 400c82.857-315.714 364.286-254.286 420 0" fill="none"/></g></g><g><text style="line-height:1.25;-inkscape-font-specification:'bm_round_blind, Normal';font-variant-ligatures:normal;font-variant-caps:normal;font-variant-numeric:normal;font-feature-settings:normal;text-align:center" font-weight="400" font-size="24" font-family="bm_round_blind" letter-spacing="0" word-spacing="0" text-anchor="middle" fill-opacity=".444" stroke="#000" stroke-width="0" stroke-linejoin="round" stroke-opacity=".444" filter="url(#aH)"><textPath startOffset="50%" xlink:href="#e"/></text><path d="M-60 400C28.848-3.735 408.237 70.77 460 400M-30 400c50.44-322.872 395.73-336.276 460 0M-10 400c82.857-315.714 364.286-254.286 420 0" fill="none"/><text style="line-height:1.25;-inkscape-font-specification:'bm_round_blind, Normal';font-variant-ligatures:normal;font-variant-caps:normal;font-variant-numeric:normal;font-feature-settings:normal;text-align:center" font-weight="400" font-size="24" font-family="bm_round_blind" letter-spacing="0" word-spacing="0" text-anchor="middle" fill="#e1a702" stroke="#e1a702" stroke-width="3.3" stroke-linejoin="round" filter="url(#aI)"><textPath xlink:href="#e" startOffset="50%"/></text><path d="M-60 400C28.848-3.735 408.237 70.77 460 400M-30 400c50.44-322.872 395.73-336.276 460 0M-10 400c82.857-315.714 364.286-254.286 420 0" fill="none"/><g><text style="line-height:1.25;-inkscape-font-specification:'bm_round_blind, Normal';font-variant-ligatures:normal;font-variant-caps:normal;font-variant-numeric:normal;font-feature-settings:normal;text-align:center" font-weight="400" font-size="24" font-family="bm_round_blind" letter-spacing="0" word-spacing="0" text-anchor="middle" fill="#fecb38" stroke="#fecb38" stroke-width="3.3" stroke-linejoin="round" filter="url(#aJ)"><textPath startOffset="50%" xlink:href="#e"/></text><path d="M-60 400C28.848-3.735 408.237 70.77 460 400M-30 400c50.44-322.872 395.73-336.276 460 0M-10 400c82.857-315.714 364.286-254.286 420 0" fill="none"/></g><g><text style="line-height:1.25;-inkscape-font-specification:'bm_round, Normal';font-variant-ligatures:normal;font-variant-caps:normal;font-variant-numeric:normal;font-feature-settings:normal;text-align:center" font-weight="400" font-size="24" font-family="bm_round" letter-spacing="0" word-spacing="0" text-anchor="middle" fill="#182bb6" stroke="#182bb6" stroke-width="1.5" stroke-linejoin="round" filter="url(#aK)"><textPath xlink:href="#e" startOffset="50%"/></text><path d="M-60 400C28.848-3.735 408.237 70.77 460 400M-30 400c50.44-322.872 395.73-336.276 460 0M-10 400c82.857-315.714 364.286-254.286 420 0" fill="none"/></g><g><path mask="url(#aL)" fill="url(#aM)" filter="url(#aN)" d="M-44.286 111.985h488.571v507.158H-44.286z"/><path d="M-60 400C28.848-3.735 408.237 70.77 460 400M-30 400c50.44-322.872 395.73-336.276 460 0M-10 400c82.857-315.714 364.286-254.286 420 0" fill="none"/></g><g><path mask="url(#aO)" opacity=".7" fill="url(#aP)" filter="url(#aQ)" d="M-44.286 111.985h488.571v507.158H-44.286z"/><path d="M-60 400C28.848-3.735 408.237 70.77 460 400M-30 400c50.44-322.872 395.73-336.276 460 0M-10 400c82.857-315.714 364.286-254.286 420 0" fill="none"/></g><g><path mask="url(#aR)" opacity=".7" fill="url(#aS)" filter="url(#aT)" d="M-44.286 111.985h488.571v507.158H-44.286z"/><path d="M-60 400C28.848-3.735 408.237 70.77 460 400M-30 400c50.44-322.872 395.73-336.276 460 0M-10 400c82.857-315.714 364.286-254.286 420 0" fill="none"/></g></g><g><text style="font:34.5px/1.25 bm_serif;font-feature-settings:normal;text-align:center" letter-spacing="1.5" word-spacing="0" text-anchor="middle" fill-opacity=".444" stroke="#000" stroke-width="0" stroke-linejoin="round" stroke-opacity=".444" filter="url(#aU)"><textPath startOffset="50%" xlink:href="#p">LOLL</textPath></text><path d="M-60 400C28.848-3.735 408.237 70.77 460 400M-30 400c50.44-322.872 395.73-336.276 460 0M-10 400c82.857-315.714 364.286-254.286 420 0" fill="none"/><text style="font:34.5px/1.25 bm_serif;font-feature-settings:normal;text-align:center" letter-spacing="1.5" word-spacing="0" text-anchor="middle" fill="#c48723" stroke="#c48723" stroke-width="3.3" stroke-linejoin="round" filter="url(#aV)"><textPath xlink:href="#p" startOffset="50%">LOLL</textPath></text><path d="M-60 400C28.848-3.735 408.237 70.77 460 400M-30 400c50.44-322.872 395.73-336.276 460 0M-10 400c82.857-315.714 364.286-254.286 420 0" fill="none"/><g><text style="font:34.5px/1.25 bm_serif;font-feature-settings:normal;text-align:center" letter-spacing="1.5" word-spacing="0" text-anchor="middle" fill="#ffc42e" stroke="#ffc42e" stroke-width="3.3" stroke-linejoin="round" filter="url(#aW)"><textPath startOffset="50%" xlink:href="#p">LOLL</textPath></text><path d="M-60 400C28.848-3.735 408.237 70.77 460 400M-30 400c50.44-322.872 395.73-336.276 460 0M-10 400c82.857-315.714 364.286-254.286 420 0" fill="none"/></g><g><text style="font:34.5px/1.25 bm_serif;font-feature-settings:normal;text-align:center" letter-spacing="1.5" word-spacing="0" text-anchor="middle" fill="#182b00" stroke="#182b00" stroke-width="1.5" stroke-linejoin="round" filter="url(#aX)"><textPath xlink:href="#p" startOffset="50%">LOLL</textPath></text><path d="M-60 400C28.848-3.735 408.237 70.77 460 400M-30 400c50.44-322.872 395.73-336.276 460 0M-10 400c82.857-315.714 364.286-254.286 420 0" fill="none"/></g><g><path mask="url(#aY)" fill="url(#aZ)" filter="url(#ba)" d="M-101.041 67.16H504.53v764.174h-605.571z"/><path d="M-60 400C28.848-3.735 408.237 70.77 460 400M-30 400c50.44-322.872 395.73-336.276 460 0M-10 400c82.857-315.714 364.286-254.286 420 0" fill="none"/></g><g><path mask="url(#bb)" opacity=".2" fill="url(#bc)" filter="url(#bd)" d="M-101.041 67.16H504.53v764.174h-605.571z"/><path d="M-60 400C28.848-3.735 408.237 70.77 460 400M-30 400c50.44-322.872 395.73-336.276 460 0M-10 400c82.857-315.714 364.286-254.286 420 0" fill="none"/></g><g><path mask="url(#be)" opacity=".2" fill="url(#bf)" filter="url(#bg)" d="M-101.041 67.16H504.53v764.174h-605.571z"/><path d="M-60 400C28.848-3.735 408.237 70.77 460 400M-30 400c50.44-322.872 395.73-336.276 460 0M-10 400c82.857-315.714 364.286-254.286 420 0" fill="none"/></g></g></svg></g></svg>